<svg width="34" height="34" viewBox="0 0 34 34" fill="none" xmlns="http://www.w3.org/2000/svg">
<path fill-rule="evenodd" clip-rule="evenodd" d="M0 17C0 7.61125 7.61125 0 17 0C26.3887 0 34 7.61125 34 17C34 26.3887 26.3887 34 17 34C7.61125 34 0 26.3887 0 17ZM24.1141 23.3371C25.5721 23.1723 26.2653 22.3935 26.4918 20.9594C26.4918 20.9594 26.7325 19.3884 26.7321 16.6715C26.7321 15.1239 26.6187 13.6853 26.4915 12.6804C26.3091 11.2404 25.4772 10.3371 24.0007 10.2037C22.3101 10.051 18.6503 9.96309 16.9528 9.96309C13.4805 9.96309 11.9285 10.0479 10.2868 10.2179C8.72236 10.3795 8.03701 11.0749 7.76776 12.5104C7.57919 13.5164 7.49886 14.4585 7.49886 16.6852C7.49886 18.6855 7.59332 19.9434 7.7395 21.0018C7.94048 22.4552 8.93817 23.2719 10.4002 23.3936C12.1012 23.5353 15.5086 23.606 17.1934 23.606C18.8216 23.606 22.4849 23.5212 24.1141 23.3371ZM20.2758 16.7421L15.0112 19.5349V14.0059L20.2758 16.7421Z" fill="#FCFCFC"/>
</svg>
