<svg width="34" height="34" viewBox="0 0 34 34" fill="none" xmlns="http://www.w3.org/2000/svg">
<path fill-rule="evenodd" clip-rule="evenodd" d="M0 17C0 7.61125 7.61125 0 17 0C26.3887 0 34 7.61125 34 17C34 26.3887 26.3887 34 17 34C7.61125 34 0 26.3887 0 17ZM25.6156 11.0812L20.52 5.92447C20.4413 5.84494 20.3342 5.80029 20.2223 5.80029H9.13246C8.90139 5.80029 8.71387 5.98782 8.71387 6.21888V27.1483C8.71387 27.3794 8.90139 27.5669 9.13246 27.5669H25.3179C25.5489 27.5669 25.7365 27.3794 25.7365 27.1483V11.3756C25.7365 11.2657 25.6932 11.1599 25.6156 11.0812ZM20.7134 7.3114L24.3214 10.9629H20.7134V7.3114ZM11.2817 15.0127C11.2817 14.4604 11.7295 14.0127 12.2817 14.0127H22.5167C23.069 14.0127 23.5167 14.4604 23.5167 15.0127C23.5167 15.565 23.069 16.0127 22.5167 16.0127H12.2817C11.7295 16.0127 11.2817 15.565 11.2817 15.0127ZM11.2817 19.1064C11.2817 18.5542 11.7295 18.1064 12.2817 18.1064H22.5167C23.069 18.1064 23.5167 18.5542 23.5167 19.1064C23.5167 19.6587 23.069 20.1064 22.5167 20.1064H12.2817C11.7295 20.1064 11.2817 19.6587 11.2817 19.1064ZM12.2817 22.2007C11.7295 22.2007 11.2817 22.6484 11.2817 23.2007C11.2817 23.753 11.7295 24.2007 12.2817 24.2007H22.5167C23.069 24.2007 23.5167 23.753 23.5167 23.2007C23.5167 22.6484 23.069 22.2007 22.5167 22.2007H12.2817Z" fill="#FCFCFC"/>
</svg>
