<svg width="34" height="34" viewBox="0 0 34 34" fill="none" xmlns="http://www.w3.org/2000/svg">
<path fill-rule="evenodd" clip-rule="evenodd" d="M0 17C0 7.61125 7.61125 0 17 0C26.3887 0 34 7.61125 34 17C34 26.3887 26.3887 34 17 34C7.61125 34 0 26.3887 0 17ZM20.1325 8.57129C21.7125 8.84495 23.2238 9.32555 24.6371 9.98684C27.1085 13.6774 28.3364 17.8398 27.883 22.6406C25.9921 24.0544 24.158 24.9121 22.3548 25.4734C21.9083 24.8613 21.5133 24.2088 21.1715 23.5247C21.8224 23.2774 22.4475 22.9721 23.0383 22.6161C22.8837 22.5003 22.7309 22.3793 22.5815 22.2547C19.0317 23.9351 15.1281 23.9351 11.5353 22.2547C11.3877 22.3793 11.2348 22.5003 11.0785 22.6161C11.6676 22.9704 12.291 23.2756 12.9419 23.5229C12.6001 24.2088 12.2034 24.8595 11.7586 25.4717C9.95709 24.9104 8.12466 24.0527 6.23383 22.6406C5.84743 18.4993 6.62024 14.2983 9.47108 9.99034C10.8845 9.32731 12.3975 8.84495 13.9792 8.57129C14.175 8.92211 14.4068 9.39397 14.5631 9.76933C16.2118 9.51675 17.8759 9.51675 19.5555 9.76933C19.7118 9.39397 19.9384 8.92211 20.1325 8.57129ZM11.4684 17.8608C11.4684 19.0869 12.3528 20.0938 13.4313 20.0938C14.5287 20.0938 15.396 19.0869 15.3943 17.8608C15.4132 16.633 14.5287 15.6262 13.4313 15.6262C12.3339 15.6262 11.4684 16.6347 11.4684 17.8608ZM18.7225 17.8608C18.7225 19.0869 19.607 20.0938 20.6855 20.0938C21.7829 20.0938 22.6484 19.0869 22.6484 17.8608C22.6673 16.633 21.7829 15.6262 20.6855 15.6262C19.5881 15.6262 18.7225 16.6347 18.7225 17.8608Z" fill="#FCFCFC"/>
</svg>
