<svg width="34" height="34" viewBox="0 0 34 34" fill="none" xmlns="http://www.w3.org/2000/svg">
<path fill-rule="evenodd" clip-rule="evenodd" d="M0 17C0 7.61125 7.61125 0 17 0C26.3887 0 34 7.61125 34 17C34 26.3887 26.3887 34 17 34C7.61125 34 0 26.3887 0 17ZM12.5508 6.14062L8.76759 19.1825L8.63193 19.6411C7.32873 24.1259 8.81744 27.9164 14.1253 27.9753C14.8048 26.2747 15.7454 23.9276 16.9474 20.9339H14.0697L17.1526 10.2569C17.1602 10.2317 17.1703 10.2073 17.1828 10.1841L18.3573 6.14062H12.5508ZM21.1445 17.9313L14.1462 27.9753H14.254C19.4251 27.9753 24.7365 24.1629 26.0489 19.64C27.271 15.436 25.1921 11.9597 20.7584 11.4976L18.1752 17.9313H21.1445Z" fill="#FCFCFC"/>
</svg>
